{
	"patcher" : 	{
		"fileversion" : 1,
		"appversion" : 		{
			"major" : 9,
			"minor" : 0,
			"revision" : 3,
			"architecture" : "x64",
			"modernui" : 1
		}
,
		"classnamespace" : "box",
		"rect" : [ 630.0, 356.0, 640.0, 424.0 ],
		"openinpresentation" : 1,
		"default_fontsize" : 13.0,
		"default_fontname" : "Helvetica Neue Italic",
		"gridsize" : [ 15.0, 15.0 ],
		"toolbarvisible" : 0,
		"enablehscroll" : 0,
		"enablevscroll" : 0,
		"boxes" : [ 			{
				"box" : 				{
					"fontface" : 2,
					"fontname" : "Helvetica Neue Italic",
					"id" : "obj-12",
					"maxclass" : "comment",
					"numinlets" : 1,
					"numoutlets" : 0,
					"patching_rect" : [ 373.0, 328.0, 149.0, 22.0 ],
					"presentation" : 1,
					"presentation_rect" : [ 216.0, 259.0, 61.0, 22.0 ],
					"saved_attribute_attributes" : 					{
						"textcolor" : 						{
							"expression" : "themecolor.theme_textcolor"
						}

					}
,
					"text" : "Externals",
					"textcolor" : [ 0.85, 0.85, 0.85, 1.0 ]
				}

			}
, 			{
				"box" : 				{
					"bgcolor" : [ 0.458823529411765, 0.333333333333333, 0.572549019607843, 1.0 ],
					"bgcolor2" : [ 0.2, 0.2, 0.2, 1.0 ],
					"bgfillcolor_angle" : 270.0,
					"bgfillcolor_autogradient" : 0.0,
					"bgfillcolor_color" : [ 0.458823529411765, 0.333333333333333, 0.572549019607843, 1.0 ],
					"bgfillcolor_color1" : [ 0.458823529411765, 0.333333333333333, 0.572549019607843, 1.0 ],
					"bgfillcolor_color2" : [ 0.2, 0.2, 0.2, 1.0 ],
					"bgfillcolor_proportion" : 0.5,
					"bgfillcolor_type" : "gradient",
					"fontsize" : 12.0,
					"gradient" : 1,
					"id" : "obj-10",
					"linecount" : 2,
					"maxclass" : "message",
					"numinlets" : 2,
					"numoutlets" : 1,
					"outlettype" : [ "" ],
					"patching_rect" : [ 298.0, 304.0, 31.0, 37.0 ],
					"presentation" : 1,
					"presentation_rect" : [ 220.0, 286.0, 33.0, 23.0 ],
					"text" : "rytm"
				}

			}
, 			{
				"box" : 				{
					"id" : "obj-8",
					"maxclass" : "message",
					"numinlets" : 2,
					"numoutlets" : 1,
					"outlettype" : [ "" ],
					"patching_rect" : [ 40.0, 361.0, 131.0, 24.0 ],
					"text" : "rytm.maxhelp"
				}

			}
, 			{
				"box" : 				{
					"id" : "obj-6",
					"linecount" : 2,
					"maxclass" : "message",
					"numinlets" : 2,
					"numoutlets" : 1,
					"outlettype" : [ "" ],
					"patching_rect" : [ 40.0, 391.0, 48.0, 39.0 ],
					"text" : "load $1"
				}

			}
, 			{
				"box" : 				{
					"id" : "obj-4",
					"linecount" : 2,
					"maxclass" : "newobj",
					"numinlets" : 1,
					"numoutlets" : 1,
					"outlettype" : [ "" ],
					"patching_rect" : [ 40.0, 421.0, 51.0, 39.0 ],
					"text" : "pcontrol"
				}

			}
, 			{
				"box" : 				{
					"autofit" : 1,
					"forceaspect" : 1,
					"id" : "obj-22",
					"maxclass" : "fpic",
					"numinlets" : 1,
					"numoutlets" : 1,
					"outlettype" : [ "jit_matrix" ],
					"patching_rect" : [ 161.0, -10.0, 294.0, 294.0 ],
					"pic" : "petunia_transparent.png",
					"presentation" : 1,
					"presentation_rect" : [ 172.0, -6.0, 294.0, 294.0 ]
				}

			}
 ],
		"lines" : [ 			{
				"patchline" : 				{
					"destination" : [ "obj-8", 0 ],
					"source" : [ "obj-10", 0 ]
				}

			}
, 			{
				"patchline" : 				{
					"destination" : [ "obj-4", 0 ],
					"source" : [ "obj-6", 0 ]
				}

			}
, 			{
				"patchline" : 				{
					"destination" : [ "obj-6", 0 ],
					"source" : [ "obj-8", 0 ]
				}

			}
 ],
		"originid" : "pat-222",
		"dependency_cache" : [ 			{
				"name" : "petunia_transparent.png",
				"bootpath" : "~/Desktop/software/rytm-max/petunia/extras",
				"patcherrelativepath" : ".",
				"type" : "PNG",
				"implicit" : 1
			}
 ],
		"autosave" : 0
	}

}
